<svg width="1410" height="1410" viewBox="0 0 1410 1410" fill="none" xmlns="http://www.w3.org/2000/svg">
<rect width="1410" height="1410" rx="300" fill="white"/>
<path d="M683.848 625.999L684.042 625.771L684.072 625.736L684.271 625.506L684.458 625.292L684.462 625.288L684.473 625.276L684.647 625.08L684.751 624.965L684.798 624.913L684.941 624.754L685.087 624.595L685.323 624.34C685.604 624.04 685.889 623.744 686.177 623.452C691.088 618.48 697.154 614.651 703.94 612.402C708.37 610.934 713.107 610.14 718.03 610.14C723.688 610.14 729.1 611.189 734.084 613.105C740.141 615.433 745.563 619.039 750.02 623.593C757.525 631.258 762.296 641.611 762.757 653.073C762.782 653.68 762.794 654.291 762.794 654.904C762.794 679.626 742.752 699.668 718.03 699.668C698.799 699.668 682.4 687.541 676.064 670.517L676.059 670.505L676.007 670.341L676.003 670.33C675.954 670.195 675.905 670.059 675.857 669.924C675.787 669.726 675.717 669.528 675.65 669.33L675.636 669.29L675.573 669.1L675.557 669.052L675.553 669.042L675.547 669.024L675.544 669.014L675.541 669.007L675.536 668.993L675.509 668.91L675.477 668.814C675.435 668.685 675.394 668.555 675.353 668.426L675.268 668.155C675.165 667.821 675.065 667.485 674.97 667.148L674.966 667.136L674.911 666.969L674.907 666.956L655.827 608.233L597.912 429.99L597.909 429.984L596.697 426.255L596.695 426.247L587.777 398.8L574.77 358.769L574.769 358.762L574.765 358.754L569.019 341.066L569.017 341.059C560.413 320.384 546.055 302.705 527.942 290.021C511.086 278.217 490.979 270.739 469.23 269.199H399.163L400.998 274.844L403.865 283.668L412.241 309.447L413.1 312.088L421.171 336.932L468.332 482.079L474.906 502.31L535.015 687.306L556.13 752.289L556.166 752.437L556.168 752.449L556.19 752.532L561.555 768.983C573.524 798.122 596.903 821.375 626.133 833.167C639.665 838.63 654.451 842.248 669.939 842.248H669.995L670.663 842.23L671.413 842.205L671.652 842.199L671.82 842.193L672.295 842.174H672.383L672.79 842.156L673.492 842.131C675.372 842.058 677.249 841.966 679.127 841.855C695.921 840.886 712.644 838.532 729.129 834.803L729.421 834.736C737.397 832.921 745.23 830.591 752.873 827.776C754.638 827.42 756.464 827.237 758.333 827.237C773.573 827.237 785.928 839.593 785.928 854.831C785.928 855.922 785.865 856.995 785.742 858.05L782.396 868.346L732.561 1021.73C721.059 1023.25 709.511 1024.38 697.938 1025.12C673.037 1026.71 648.014 1026.51 623.064 1024.5L581.749 897.35L558.068 824.471L514.876 691.542L453.592 502.926L445.636 478.442L403.206 347.852L393.976 319.446L392.448 314.742L386.263 295.708L384.782 291.154L370.875 248.35H483.946C484.914 248.418 485.88 248.499 486.842 248.591C487.059 248.611 487.277 248.633 487.495 248.655L488.007 248.708C489.354 248.85 490.695 249.015 492.028 249.204C510.69 251.831 527.941 258.857 542.697 269.199L543.166 269.529L543.18 269.539L543.202 269.555L543.337 269.65L543.573 269.819L543.699 269.909L543.907 270.059L543.986 270.116L544.233 270.294L544.276 270.325L544.512 270.497L544.563 270.534L544.584 270.549L544.762 270.679C545.378 271.131 545.988 271.588 546.593 272.051L546.856 272.252L546.879 272.27L546.889 272.278L546.952 272.325L547.002 272.365L547.046 272.398L547.122 272.457L547.324 272.614C550.964 275.441 554.434 278.478 557.714 281.707C557.878 281.868 558.041 282.03 558.205 282.192L558.374 282.362L558.557 282.546L558.695 282.684L559.056 283.049L559.077 283.071L559.13 283.125C559.384 283.383 559.635 283.641 559.885 283.901L560.046 284.068L560.147 284.173L560.211 284.241L560.359 284.396L560.607 284.657L560.699 284.754L560.729 284.786L560.855 284.919L561.053 285.131L561.286 285.381L561.569 285.685C570.345 295.177 577.569 306.124 582.84 318.124L582.871 318.192L589.967 340.05L589.982 340.121L589.987 340.14C589.988 340.143 589.989 340.147 589.991 340.15C589.993 340.153 589.994 340.156 589.995 340.16L589.999 340.171L590.002 340.186L590.005 340.193L615.578 418.971L617.463 424.777L677.17 606.888L677.475 607.63L683.553 626.352L683.605 626.289L683.808 626.046L683.848 625.999Z" fill="#070B0E"/>
<path d="M718.861 480.569L701.188 534.918H701.801C703.373 533.592 705.003 532.332 706.688 531.141C711.191 527.959 716.033 525.312 721.116 523.244C724.763 521.759 728.534 520.573 732.392 519.701L732.409 519.7C743.256 517.247 754.376 516.358 765.432 517.04C769.654 517.301 773.867 517.791 778.053 518.511C792.021 520.912 805.425 525.83 817.62 533.014C818.648 533.62 819.668 534.242 820.678 534.879C825.061 537.646 829.246 540.694 833.208 544.001C840.992 550.498 847.917 557.995 853.794 566.313C857.482 571.534 860.728 577.035 863.506 582.759C866.125 588.158 868.326 593.755 870.092 599.501L909.343 478.688L949.618 354.738L949.864 353.993L953.543 342.654L953.733 342.08L953.935 341.455L970.523 290.399L977.415 269.199L984.185 248.35H871.981C850.217 249.891 830.095 257.38 813.231 269.199C808.659 272.404 804.326 275.927 800.266 279.735C784.036 294.959 771.378 313.442 765.882 335.754L765.53 337.066L733.303 436.161L718.861 480.569Z" fill="#070B0E"/>
<path d="M410.225 959.768C410.748 960.062 411.273 960.357 411.798 960.645C419.964 965.183 428.242 969.493 436.622 973.577C489.066 999.117 545.494 1015.7 603.565 1022.57C634.955 1026.28 666.541 1027.12 697.935 1025.12C734.494 1022.79 770.793 1016.59 806.22 1006.6C872.067 988.025 933.608 956.659 987.337 914.293C1041.07 871.933 1085.92 819.406 1119.35 759.706L1120.42 760.305C1086.92 820.142 1041.95 872.797 988.098 915.262C934.246 957.72 872.558 989.159 806.553 1007.78C740.55 1026.4 671.524 1031.84 603.42 1023.79C535.315 1015.74 469.464 994.347 409.625 960.841L410.225 959.768Z" fill="#070B0E"/>
<path d="M1129.63 757.703L1126.32 763.607C1092.38 824.218 1046.83 877.554 992.284 920.568L992.284 920.569C937.736 963.576 875.249 995.422 808.39 1014.29C741.533 1033.15 671.614 1038.66 602.628 1030.5C533.642 1022.34 469.814 1001.34 406.842 965.708L401.312 962.329L407.632 950.558L413.538 953.877L415.052 954.721L415.082 954.738C423.142 959.216 431.314 963.471 439.585 967.503C491.349 992.711 547.044 1009.08 604.361 1015.86C635.344 1019.52 666.52 1020.35 697.507 1018.37L697.507 1018.37C733.027 1016.11 768.3 1010.15 802.748 1000.56L804.388 1000.1C869.381 981.761 930.124 950.802 983.155 908.986L984.397 908.004C1036.88 866.365 1080.72 814.869 1113.45 756.404L1116.75 750.515L1129.63 757.703Z" fill="#070B0E"/>
<path d="M804.21 260.21C862.282 267.077 918.709 283.662 971.15 309.205C979.533 313.286 987.811 317.597 995.979 322.132L995.93 322.221C1032.76 342.842 1065.17 370.515 1091.3 403.662C1117.44 436.807 1136.79 474.777 1148.25 515.401C1159.71 556.025 1163.06 598.509 1158.1 640.427C1153.14 682.344 1139.98 722.876 1119.36 759.706L1120.43 760.305C1141.12 723.335 1154.34 682.649 1159.32 640.57C1164.29 598.493 1160.93 555.847 1149.43 515.068C1137.92 474.289 1118.5 436.174 1092.26 402.902C1066.4 370.102 1034.42 342.639 998.094 322.035L998.149 321.939C938.313 288.436 872.461 267.046 804.355 258.991C779.133 256.009 753.786 254.877 728.512 255.579C719.569 255.828 710.636 256.306 701.721 257.013C685.335 258.503 669.09 260.981 653.094 264.424C669.239 261.594 685.499 259.53 701.821 258.236C735.851 255.536 770.146 256.181 804.21 260.21ZM998.094 322.035C997.922 321.937 997.751 321.839 997.579 321.741C997.23 321.544 996.874 321.347 996.524 321.151C996.684 321.24 996.843 321.33 997.003 321.419C997.162 321.506 997.315 321.594 997.475 321.682C997.677 321.799 997.886 321.917 998.094 322.035Z" fill="#070B0E"/>
<path d="M728.319 248.824C753.919 248.113 779.595 249.259 805.143 252.281C874.13 260.439 940.834 282.105 1001.45 316.043L1007.42 319.386L1007.31 319.576C1041.97 340.194 1072.56 367.013 1097.56 398.718L1097.57 398.719C1124.35 432.687 1144.18 471.599 1155.93 513.233C1167.67 554.866 1171.1 598.405 1166.02 641.364V641.365C1160.94 684.324 1147.45 725.862 1126.32 763.606L1123.02 769.497L1110.15 762.309L1113.45 756.405C1133.64 720.349 1146.53 680.67 1151.38 639.634V639.633C1156.16 599.238 1153.06 558.306 1142.26 519.101L1141.74 517.236C1130.52 477.466 1111.57 440.295 1085.99 407.846C1060.4 375.397 1028.68 348.305 992.622 328.118L986.761 324.836L986.776 324.806C980.64 321.503 974.442 318.328 968.186 315.281L968.185 315.281C916.424 290.07 860.729 273.7 803.411 266.921C769.788 262.945 735.938 262.308 702.35 264.973C686.24 266.251 668.214 268.688 652.278 271.481L650.742 257.965C667.006 254.464 684.446 251.798 701.103 250.283L701.142 250.28L701.181 250.277C710.211 249.561 719.261 249.076 728.319 248.824Z" fill="#070B0E"/>
<path fill-rule="evenodd" clip-rule="evenodd" d="M678.686 841.887C678.508 841.902 678.329 841.916 678.15 841.929C678.289 841.919 678.428 841.908 678.566 841.897C678.606 841.894 678.646 841.89 678.686 841.887ZM404.949 696.002C404.927 695.971 404.905 695.939 404.883 695.908L404.895 695.925C404.913 695.951 404.931 695.977 404.949 696.002ZM695.856 842.003C695.883 841.815 695.909 841.627 695.934 841.439C695.927 841.495 695.919 841.551 695.911 841.606C695.893 841.739 695.875 841.871 695.856 842.003ZM695.943 841.374C695.957 841.273 695.97 841.172 695.984 841.071C695.998 840.965 696.012 840.858 696.026 840.752C696.002 840.937 695.977 841.122 695.952 841.307C695.949 841.329 695.946 841.351 695.943 841.374Z" fill="#070B0E"/>
<path fill-rule="evenodd" clip-rule="evenodd" d="M792.452 858.831C792.605 857.52 792.684 856.186 792.684 854.831C792.684 835.861 777.304 820.479 758.332 820.479C756.163 820.479 754.029 820.679 751.951 821.071L751.536 821.152C751.388 821.181 751.12 821.235 750.828 821.305L750.452 821.395L750.089 821.529C748.111 822.253 746.131 822.943 744.15 823.589L744.141 823.593L744.13 823.596C738.756 825.367 733.288 826.882 727.74 828.152L727.505 828.201L727.451 828.212L727.398 828.224C711.276 831.87 694.92 834.173 678.498 835.121L678.357 835.129L678.217 835.143C678.069 835.158 677.909 835.17 677.642 835.19L677.587 835.194L677.533 835.199C677.497 835.202 677.473 835.204 677.449 835.206L677.433 835.209L677.421 835.209L677.405 835.21C677.395 835.211 677.399 835.211 677.405 835.21L677.236 835.218L677.104 835.231C639.209 836.581 601.387 830.733 565.651 817.977L563.916 817.352C527.512 804.109 494.014 783.929 465.281 757.93C445.738 740.246 428.656 720.1 414.439 698.04L413.764 696.989C413.571 696.685 413.378 696.382 413.185 696.078C413.028 695.83 412.872 695.583 412.716 695.336C412.628 695.195 412.539 695.054 412.451 694.913L412.33 694.72L412.197 694.537L411.475 693.533L410.763 692.53L410.734 692.488L410.704 692.446L410.266 691.821L409.962 691.384L409.77 691.108L409.699 691.006C409.481 690.69 409.264 690.373 409.047 690.056C408.941 689.901 408.836 689.745 408.73 689.59C406.099 685.707 403.619 681.741 401.293 677.697C399.549 674.663 397.892 671.586 396.326 668.468L395.66 667.13L395.549 666.903L395.546 666.896L395.542 666.889L395.408 666.615L395.403 666.604L395.385 666.568L395.35 666.497L395.341 666.479L395.297 666.39L395.279 666.353L395.21 666.212L395.158 666.103L395.144 666.075L395.132 666.051L395.075 665.93L395.06 665.9L395.012 665.8L394.422 664.564C383.651 641.814 377.806 617.432 377.189 592.703C376.141 550.579 384.35 508.619 401.377 469.21C409.161 451.192 418.72 433.866 429.916 417.43C443.213 397.911 458.821 379.646 476.512 362.969C509.102 332.246 548.119 307.517 591.353 290.222C611.47 282.174 632.314 275.81 653.616 271.187L651.005 257.929C633.755 260.983 616.636 264.899 599.715 269.674L598.152 270.118C532.039 288.99 470.245 320.601 416.247 363.177C361.824 406.089 316.382 459.3 282.524 519.773C261.469 557.377 248.028 598.76 242.967 641.559C237.905 684.359 241.323 727.736 253.025 769.214C264.727 810.689 284.485 849.458 311.17 883.304C336.439 915.35 367.452 942.386 402.603 963.044L402.506 963.212L408.517 966.552C416.79 971.149 425.176 975.516 433.666 979.648C486.79 1005.52 543.952 1022.33 602.774 1029.28C609.349 1030.06 615.932 1030.71 622.521 1031.24C647.795 1033.27 673.145 1033.47 698.369 1031.86C710.094 1031.11 721.793 1029.96 733.441 1028.43L737.668 1027.87L788.822 870.434L792.374 859.499L792.452 858.831ZM395.435 681.065C393.369 677.473 391.422 673.822 389.597 670.115L389.473 669.862L389.339 669.588L389.32 669.549L389.286 669.479L389.272 669.451L389.23 669.365L389.213 669.332L389.144 669.19L389.074 669.045L389.062 669.021L389.042 668.98L389.03 668.956L388.997 668.887L388.984 668.86L388.977 668.844L388.963 668.816L388.956 668.802C388.85 668.582 388.745 668.361 388.64 668.141C388.532 667.915 388.424 667.688 388.317 667.462C377.147 643.873 371.074 618.562 370.433 592.871C369.36 549.752 377.766 506.82 395.173 466.529C403.131 448.111 412.898 430.408 424.331 413.625C437.909 393.694 453.837 375.056 471.876 358.051C505.107 326.725 544.852 301.546 588.843 283.947C609.314 275.758 630.518 269.284 652.183 264.583C635.154 267.598 618.254 271.465 601.55 276.178C535.701 294.755 474.158 326.122 420.431 368.484C366.705 410.847 321.845 463.376 288.421 523.074C267.799 559.904 254.635 600.435 249.678 642.353C244.72 684.271 248.068 726.755 259.529 767.379C270.991 808 290.341 845.97 316.476 879.12C342.611 912.263 375.019 939.937 411.849 960.559L411.799 960.645C419.966 965.183 428.244 969.494 436.623 973.572C489.068 999.118 545.497 1015.7 603.566 1022.57C610.058 1023.34 616.558 1023.98 623.063 1024.5C648.012 1026.51 673.035 1026.71 697.937 1025.12C709.51 1024.38 721.058 1023.24 732.559 1021.73L782.395 868.346L785.739 858.05C785.862 856.996 785.926 855.922 785.926 854.831C785.926 839.593 773.572 827.237 758.332 827.237C756.463 827.237 754.636 827.421 752.872 827.776C752.835 827.784 752.798 827.791 752.762 827.798C752.719 827.807 752.675 827.816 752.632 827.825C752.559 827.841 752.486 827.857 752.412 827.874C750.37 828.622 748.314 829.34 746.245 830.014C740.644 831.86 734.95 833.436 729.182 834.755L728.889 834.816C712.405 838.544 695.681 840.899 678.887 841.868C678.778 841.879 678.669 841.888 678.561 841.897C678.422 841.908 678.283 841.919 678.144 841.929L678.056 841.937C678.003 841.942 677.95 841.946 677.896 841.95C677.867 841.952 677.838 841.954 677.809 841.956C677.787 841.957 677.764 841.959 677.741 841.96L677.564 841.978C638.742 843.388 599.991 837.41 563.38 824.342C525.469 810.815 490.595 789.948 460.747 762.942C440.446 744.571 422.742 723.604 408.068 700.625C407.872 700.317 407.675 700.009 407.479 699.699C407.227 699.3 406.975 698.9 406.724 698.5C406.225 697.811 405.73 697.119 405.24 696.424L405.208 696.379L405.186 696.348C405.087 696.207 404.988 696.066 404.889 695.925L404.727 695.693L404.417 695.248L404.413 695.242L404.22 694.965L404.138 694.847C403.802 694.359 403.468 693.87 403.136 693.381C400.412 689.362 397.843 685.254 395.435 681.065ZM695.851 842.003C696.269 841.96 696.688 841.923 697.106 841.88L697.17 841.42L697.224 841.003L697.252 840.795L697.273 840.629C696.855 840.672 696.438 840.715 696.02 840.752C695.996 840.937 695.971 841.122 695.947 841.307C695.933 841.407 695.919 841.507 695.906 841.607C695.888 841.739 695.869 841.871 695.851 842.003Z" fill="#070B0E"/>
<path d="M389.597 670.116C391.422 673.822 393.369 677.473 395.435 681.066C397.843 685.254 400.412 689.362 403.136 693.381C403.468 693.871 403.802 694.359 404.138 694.847L404.22 694.965L404.413 695.242L404.417 695.248L404.727 695.694L404.889 695.925C404.988 696.066 405.087 696.207 405.186 696.348L405.208 696.379L405.24 696.425C405.73 697.119 406.225 697.811 406.724 698.5C406.975 698.901 407.227 699.3 407.479 699.7C407.675 700.009 407.872 700.317 408.068 700.626C422.742 723.604 440.446 744.572 460.747 762.942C490.595 789.948 525.469 810.815 563.38 824.343C599.991 837.41 638.742 843.389 677.564 841.978L677.741 841.96C677.764 841.959 677.787 841.958 677.809 841.956C677.838 841.954 677.867 841.952 677.896 841.95C677.95 841.946 678.003 841.942 678.056 841.937L678.144 841.929C678.283 841.919 678.422 841.909 678.561 841.897C678.669 841.888 678.778 841.879 678.887 841.868C695.681 840.899 712.405 838.544 728.889 834.816L729.182 834.755C734.95 833.436 740.644 831.86 746.245 830.015C748.314 829.34 750.37 828.623 752.412 827.875C752.486 827.857 752.559 827.841 752.632 827.825C752.675 827.816 752.719 827.807 752.762 827.798C752.798 827.791 752.835 827.784 752.872 827.776C754.636 827.421 756.463 827.237 758.332 827.237C773.572 827.237 785.926 839.593 785.926 854.831C785.926 855.923 785.862 856.996 785.739 858.05L782.395 868.346L732.559 1021.73C721.058 1023.24 709.51 1024.38 697.937 1025.12C673.035 1026.71 648.012 1026.51 623.063 1024.5C616.558 1023.98 610.058 1023.34 603.566 1022.57C545.497 1015.7 489.068 999.118 436.623 973.572C428.244 969.494 419.966 965.183 411.799 960.645L411.849 960.559C375.019 939.937 342.611 912.264 316.476 879.12C290.341 845.97 270.991 808.001 259.529 767.379C248.068 726.755 244.72 684.271 249.678 642.353C254.635 600.435 267.799 559.904 288.421 523.074C321.845 463.376 366.705 410.847 420.431 368.484C474.158 326.122 535.701 294.756 601.55 276.178C618.254 271.465 635.154 267.598 652.183 264.583C630.518 269.284 609.314 275.758 588.843 283.947C544.852 301.546 505.107 326.725 471.876 358.051C453.837 375.057 437.909 393.694 424.331 413.625C412.898 430.409 403.131 448.111 395.173 466.529C377.766 506.821 369.36 549.752 370.434 592.871C371.074 618.562 377.148 643.873 388.317 667.462C388.424 667.689 388.532 667.915 388.64 668.141C388.745 668.362 388.85 668.582 388.956 668.802L388.963 668.816L388.977 668.844L388.984 668.86L388.997 668.887L389.03 668.956L389.042 668.98L389.062 669.021L389.074 669.045L389.144 669.191L389.213 669.332L389.23 669.365L389.272 669.451L389.286 669.479L389.32 669.549L389.339 669.588L389.473 669.862L389.597 670.116ZM697.106 841.88C696.688 841.923 696.269 841.96 695.85 842.003C695.869 841.871 695.888 841.739 695.906 841.607C695.945 841.322 695.983 841.037 696.02 840.752C696.438 840.715 696.855 840.672 697.273 840.629L697.252 840.795L697.224 841.003L697.17 841.42L697.106 841.88Z" fill="#070B0E"/>
<path d="M703.18 1043.83C710.234 1043.41 717.276 1042.88 724.307 1042.24L677.333 1186.35L631.016 1044.26C632.586 1044.33 634.161 1044.4 635.733 1044.47C657.044 1045.32 678.434 1045.18 699.813 1044.02L701.369 1043.93H702.068L702.4 1043.87L703.18 1043.83Z" fill="#070B0E"/>
<path d="M683.848 625.999L684.042 625.771L684.072 625.736L684.271 625.506L684.458 625.292L684.462 625.288L684.473 625.276L684.647 625.08L684.751 624.965L684.798 624.913L684.941 624.754L685.087 624.595L685.323 624.34C685.604 624.04 685.889 623.744 686.177 623.452C691.088 618.48 697.154 614.651 703.94 612.402C708.37 610.934 713.107 610.14 718.03 610.14C723.688 610.14 729.1 611.189 734.084 613.105C740.141 615.433 745.563 619.039 750.02 623.593C757.525 631.258 762.296 641.611 762.757 653.073C762.782 653.68 762.794 654.291 762.794 654.904C762.794 679.626 742.752 699.668 718.03 699.668C698.799 699.668 682.4 687.541 676.064 670.517L676.059 670.505L676.007 670.341L676.003 670.33C675.954 670.195 675.905 670.059 675.857 669.924C675.787 669.726 675.717 669.528 675.65 669.33L675.636 669.29L675.573 669.1L675.557 669.052L675.553 669.042L675.547 669.024L675.544 669.014L675.541 669.007L675.536 668.993L675.509 668.91L675.477 668.814C675.435 668.685 675.394 668.555 675.353 668.426L675.268 668.155C675.165 667.821 675.065 667.485 674.97 667.148L674.966 667.136L674.911 666.969L674.907 666.956L655.827 608.233L597.912 429.99L597.909 429.984L596.697 426.255L596.695 426.247L587.777 398.8L574.77 358.769L574.769 358.762L574.765 358.754L569.019 341.066L569.017 341.059C560.413 320.384 546.055 302.705 527.942 290.021C511.086 278.217 490.979 270.739 469.23 269.199H399.163L400.998 274.844L403.865 283.668L412.241 309.447L413.1 312.088L421.171 336.932L468.332 482.079L474.906 502.31L535.015 687.306L556.13 752.289L556.166 752.437L556.168 752.449L556.19 752.532L561.555 768.983C573.524 798.122 596.903 821.375 626.133 833.167C639.665 838.63 654.451 842.248 669.939 842.248H669.995L670.663 842.23L671.413 842.205L671.652 842.199L671.82 842.193L672.295 842.174H672.383L672.79 842.156L673.492 842.131C675.372 842.058 677.249 841.966 679.127 841.855C695.921 840.886 712.644 838.532 729.129 834.803L729.421 834.736C737.397 832.921 745.23 830.591 752.873 827.776C754.638 827.42 756.464 827.237 758.333 827.237C773.573 827.237 785.928 839.593 785.928 854.831C785.928 855.922 785.865 856.995 785.742 858.05L782.396 868.346L732.561 1021.73C721.059 1023.25 709.511 1024.38 697.938 1025.12C673.037 1026.71 648.014 1026.51 623.064 1024.5L581.749 897.35L558.068 824.471L514.876 691.542L453.592 502.926L445.636 478.442L403.206 347.852L393.976 319.446L392.448 314.742L386.263 295.708L384.782 291.154L370.875 248.35H483.946C484.914 248.418 485.88 248.499 486.842 248.591C487.059 248.611 487.277 248.633 487.495 248.655L488.007 248.708C489.354 248.85 490.695 249.015 492.028 249.204C510.69 251.831 527.941 258.857 542.697 269.199L543.166 269.529L543.18 269.539L543.202 269.555L543.337 269.65L543.573 269.819L543.699 269.909L543.907 270.059L543.986 270.116L544.233 270.294L544.276 270.325L544.512 270.497L544.563 270.534L544.584 270.549L544.762 270.679C545.378 271.131 545.988 271.588 546.593 272.051L546.856 272.252L546.879 272.27L546.889 272.278L546.952 272.325L547.002 272.365L547.046 272.398L547.122 272.457L547.324 272.614C550.964 275.441 554.434 278.478 557.714 281.707C557.878 281.868 558.041 282.03 558.205 282.192L558.374 282.362L558.557 282.546L558.695 282.684L559.056 283.049L559.077 283.071L559.13 283.125C559.384 283.383 559.635 283.641 559.885 283.901L560.046 284.068L560.147 284.173L560.211 284.241L560.359 284.396L560.607 284.657L560.699 284.754L560.729 284.786L560.855 284.919L561.053 285.131L561.286 285.381L561.569 285.685C570.345 295.177 577.569 306.124 582.84 318.124L582.871 318.192L589.967 340.05L589.982 340.121L589.987 340.14C589.988 340.143 589.989 340.147 589.991 340.15C589.993 340.153 589.994 340.156 589.995 340.16L589.999 340.171L590.002 340.186L590.005 340.193L615.578 418.971L617.463 424.777L677.17 606.888L677.475 607.63L683.553 626.352L683.605 626.289L683.808 626.046L683.848 625.999Z" fill="#070B0E"/>
</svg>
